{
  "accessors": [
    {
      "bufferView": 2,
      "componentType": 5126,
      "count": 65533,
      "max": [
        17.780908584594727,
        -1.5783973932266235,
        13.3895902633667
      ],
      "min": [
        -14.579984664916992,
        -37.22450256347656,
        -12.019123077392578
      ],
      "type": "VEC3"
    },
    {
      "bufferView": 2,
      "byteOffset": 786396,
      "componentType": 5126,
      "count": 65533,
      "max": [
        0.9999827146530151,
        0.999953031539917,
        0.9999764561653137
      ],
      "min": [
        -0.9999996423721313,
        -0.999999463558197,
        -0.999934196472168
      ],
      "type": "VEC3"
    },
    {
      "bufferView": 1,
      "componentType": 5126,
      "count": 65533,
      "max": [
        0.9997220039367676,
        0.9998779892921448
      ],
      "min": [
        0.00012199999764561653,
        0.00019700000120792538
      ],
      "type": "VEC2"
    },
    {
      "bufferView": 0,
      "componentType": 5125,
      "count": 255018,
      "type": "SCALAR"
    },
    {
      "bufferView": 2,
      "byteOffset": 1572792,
      "componentType": 5126,
      "count": 65532,
      "max": [
        12.076438903808594,
        -2.42769455909729,
        10.228824615478516
      ],
      "min": [
        -12.813547134399414,
        -41.48114776611328,
        -13.389331817626953
      ],
      "type": "VEC3"
    },
    {
      "bufferView": 2,
      "byteOffset": 2359176,
      "componentType": 5126,
      "count": 65532,
      "max": [
        0.9999678134918213,
        0.9999106526374817,
        0.9999487400054932
      ],
      "min": [
        -0.9999992847442627,
        -0.9999991655349731,
        -0.9999537467956543
      ],
      "type": "VEC3"
    },
    {
      "bufferView": 1,
      "byteOffset": 524264,
      "componentType": 5126,
      "count": 65532,
      "max": [
        0.9998030066490173,
        0.9998779892921448
      ],
      "min": [
        0.00012199999764561653,
        0.00019500000053085387
      ],
      "type": "VEC2"
    },
    {
      "bufferView": 0,
      "byteOffset": 1020072,
      "componentType": 5125,
      "count": 217650,
      "type": "SCALAR"
    },
    {
      "bufferView": 2,
      "byteOffset": 3145560,
      "componentType": 5126,
      "count": 65534,
      "max": [
        18.703861236572266,
        -1.0195667743682861,
        11.259626388549805
      ],
      "min": [
        -12.055536270141602,
        -27.416589736938477,
        -13.455341339111328
      ],
      "type": "VEC3"
    },
    {
      "bufferView": 2,
      "byteOffset": 3931968,
      "componentType": 5126,
      "count": 65534,
      "max": [
        0.9998762011528015,
        0.9999861717224121,
        0.9999738931655884
      ],
      "min": [
        -0.9999996423721313,
        -0.999996542930603,
        -0.9999791383743286
      ],
      "type": "VEC3"
    },
    {
      "bufferView": 1,
      "byteOffset": 1048520,
      "componentType": 5126,
      "count": 65534,
      "max": [
        0.9997929930686951,
        0.9998779892921448
      ],
      "min": [
        0.00012199999764561653,
        0.0002119999990100041
      ],
      "type": "VEC2"
    },
    {
      "bufferView": 0,
      "byteOffset": 1890672,
      "componentType": 5125,
      "count": 208578,
      "type": "SCALAR"
    },
    {
      "bufferView": 2,
      "byteOffset": 4718376,
      "componentType": 5126,
      "count": 65532,
      "max": [
        10.68589973449707,
        -1.230700135231018,
        17.602069854736328
      ],
      "min": [
        -8.847379684448242,
        -41.48114776611328,
        -12.605123519897461
      ],
      "type": "VEC3"
    },
    {
      "bufferView": 2,
      "byteOffset": 5504760,
      "componentType": 5126,
      "count": 65532,
      "max": [
        0.9999837875366211,
        0.9999799728393555,
        0.9999704957008362
      ],
      "min": [
        -0.9999699592590332,
        -0.9999606013298035,
        -0.9999682903289795
      ],
      "type": "VEC3"
    },
    {
      "bufferView": 1,
      "byteOffset": 1572792,
      "componentType": 5126,
      "count": 65532,
      "max": [
        0.9998149871826172,
        0.9998779892921448
      ],
      "min": [
        0.00012199999764561653,
        0.00022600000374950469
      ],
      "type": "VEC2"
    },
    {
      "bufferView": 0,
      "byteOffset": 2724984,
      "componentType": 5125,
      "count": 187527,
      "type": "SCALAR"
    },
    {
      "bufferView": 2,
      "byteOffset": 6291144,
      "componentType": 5126,
      "count": 65532,
      "max": [
        10.697976112365723,
        -6.015501976013184,
        15.250094413757324
      ],
      "min": [
        -14.833396911621094,
        -38.144287109375,
        -18.323944091796875
      ],
      "type": "VEC3"
    },
    {
      "bufferView": 2,
      "byteOffset": 7077528,
      "componentType": 5126,
      "count": 65532,
      "max": [
        0.9999646544456482,
        0.9999874234199524,
        0.9999704957008362
      ],
      "min": [
        -0.9999938607215881,
        -0.9998364448547363,
        -0.9999389052391052
      ],
      "type": "VEC3"
    },
    {
      "bufferView": 1,
      "byteOffset": 2097048,
      "componentType": 5126,
      "count": 65532,
      "max": [
        0.999809980392456,
        0.9998779892921448
      ],
      "min": [
        0.00012199999764561653,
        0.0001880000054370612
      ],
      "type": "VEC2"
    },
    {
      "bufferView": 0,
      "byteOffset": 3475092,
      "componentType": 5125,
      "count": 169056,
      "type": "SCALAR"
    },
    {
      "bufferView": 2,
      "byteOffset": 7863912,
      "componentType": 5126,
      "count": 28497,
      "max": [
        10.691107749938965,
        -5.077505588531494,
        4.810082912445068
      ],
      "min": [
        -9.795352935791016,
        -26.652263641357422,
        -20.426050186157227
      ],
      "type": "VEC3"
    },
    {
      "bufferView": 2,
      "byteOffset": 8205876,
      "componentType": 5126,
      "count": 28497,
      "max": [
        0.9999912977218628,
        0.9999772310256958,
        0.9996972680091858
      ],
      "min": [
        -0.9999430775642395,
        -0.9997736215591431,
        -0.9999037981033325
      ],
      "type": "VEC3"
    },
    {
      "bufferView": 1,
      "byteOffset": 2621304,
      "componentType": 5126,
      "count": 28497,
      "max": [
        0.9995830059051514,
        0.9998779892921448
      ],
      "min": [
        0.00012199999764561653,
        0.00023299999884329736
      ],
      "type": "VEC2"
    },
    {
      "bufferView": 0,
      "byteOffset": 4151316,
      "componentType": 5125,
      "count": 70869,
      "type": "SCALAR"
    }
  ],
  "asset": {
    "extras": {
      "author": "Epic_Tree_Store (https://sketchfab.com/johngreenstone)",
      "license": "CC-BY-4.0 (http://creativecommons.org/licenses/by/4.0/)",
      "source": "https://sketchfab.com/3d-models/tree-scan-free-5f669cbd4a624c648e1bbc1598086a60",
      "title": "Tree Scan Free"
    },
    "generator": "Sketchfab-12.65.0",
    "version": "2.0"
  },
  "bufferViews": [
    {
      "buffer": 0,
      "byteLength": 4434792,
      "name": "floatBufferViews",
      "target": 34963
    },
    {
      "buffer": 0,
      "byteLength": 2849280,
      "byteOffset": 4434792,
      "byteStride": 8,
      "name": "floatBufferViews",
      "target": 34962
    },
    {
      "buffer": 0,
      "byteLength": 8547840,
      "byteOffset": 7284072,
      "byteStride": 12,
      "name": "floatBufferViews",
      "target": 34962
    }
  ],
  "buffers": [
    {
      "byteLength": 15831912,
      "uri": "scene.bin"
    }
  ],
  "images": [
    {
      "uri": "textures/Tree41_Material_u1_v1_baseColor.png"
    }
  ],
  "materials": [
    {
      "alphaCutoff": 0.748285061,
      "alphaMode": "MASK",
      "doubleSided": true,
      "name": "Tree41_Material_u1_v1",
      "pbrMetallicRoughness": {
        "baseColorTexture": {
          "index": 0
        },
        "metallicFactor": 0.0,
        "roughnessFactor": 0.6
      }
    }
  ],
  "meshes": [
    {
      "name": "Object_0",
      "primitives": [
        {
          "attributes": {
            "NORMAL": 1,
            "POSITION": 0,
            "TEXCOORD_0": 2
          },
          "indices": 3,
          "material": 0,
          "mode": 4
        }
      ]
    },
    {
      "name": "Object_1",
      "primitives": [
        {
          "attributes": {
            "NORMAL": 5,
            "POSITION": 4,
            "TEXCOORD_0": 6
          },
          "indices": 7,
          "material": 0,
          "mode": 4
        }
      ]
    },
    {
      "name": "Object_2",
      "primitives": [
        {
          "attributes": {
            "NORMAL": 9,
            "POSITION": 8,
            "TEXCOORD_0": 10
          },
          "indices": 11,
          "material": 0,
          "mode": 4
        }
      ]
    },
    {
      "name": "Object_3",
      "primitives": [
        {
          "attributes": {
            "NORMAL": 13,
            "POSITION": 12,
            "TEXCOORD_0": 14
          },
          "indices": 15,
          "material": 0,
          "mode": 4
        }
      ]
    },
    {
      "name": "Object_4",
      "primitives": [
        {
          "attributes": {
            "NORMAL": 17,
            "POSITION": 16,
            "TEXCOORD_0": 18
          },
          "indices": 19,
          "material": 0,
          "mode": 4
        }
      ]
    },
    {
      "name": "Object_5",
      "primitives": [
        {
          "attributes": {
            "NORMAL": 21,
            "POSITION": 20,
            "TEXCOORD_0": 22
          },
          "indices": 23,
          "material": 0,
          "mode": 4
        }
      ]
    }
  ],
  "nodes": [
    {
      "children": [
        1
      ],
      "matrix": [
        0.9730662703514099,
        -0.2285967916250229,
        0.029757015407085367,
        0.0,
        -0.22915714979171753,
        -0.9451548457145691,
        0.23274311423301675,
        0.0,
        -0.02507934533059597,
        -0.2332935184240339,
        -0.9720829129219055,
        0.0,
        -4.852949619293213,
        -21.38390541076661,
        24.765954971313473,
        1.0
      ],
      "name": "Sketchfab_model"
    },
    {
      "children": [
        2,
        3,
        4,
        5,
        6,
        7
      ],
      "name": "Tree41.obj.cleaner.materialmerger.gles"
    },
    {
      "mesh": 0,
      "name": "Object_2"
    },
    {
      "mesh": 1,
      "name": "Object_3"
    },
    {
      "mesh": 2,
      "name": "Object_4"
    },
    {
      "mesh": 3,
      "name": "Object_5"
    },
    {
      "mesh": 4,
      "name": "Object_6"
    },
    {
      "mesh": 5,
      "name": "Object_7"
    }
  ],
  "samplers": [
    {
      "magFilter": 9729,
      "minFilter": 9987,
      "wrapS": 10497,
      "wrapT": 10497
    }
  ],
  "scene": 0,
  "scenes": [
    {
      "name": "Sketchfab_Scene",
      "nodes": [
        0
      ]
    }
  ],
  "textures": [
    {
      "sampler": 0,
      "source": 0
    }
  ]
}
